<?xml version="1.0"?>
<svg xmlns="http://www.w3.org/2000/svg" xmlns:xlink="http://www.w3.org/1999/xlink" xmlns:svgjs="http://svgjs.com/svgjs" version="1.1" width="512" height="512" x="0" y="0" viewBox="0 0 24 24" style="enable-background:new 0 0 512 512" xml:space="preserve" class=""><g><circle xmlns="http://www.w3.org/2000/svg" cx="12" cy="12" r="3" fill="#d6d8e1" data-original="#000000" style="" class=""/><path xmlns="http://www.w3.org/2000/svg" d="m16 17h-8c-.551 0-1 .449-1 1 0 .189.05.367.154.542.018.03.038.059.06.086l4.058 5.064c.2.199.458.308.728.308s.528-.109.786-.371l4-5c.022-.027.042-.057.06-.086.104-.176.154-.354.154-.543 0-.551-.449-1-1-1z" fill="#d6d8e1" data-original="#000000" style="" class=""/><path xmlns="http://www.w3.org/2000/svg" d="m8 7h8c.551 0 1-.449 1-1 0-.189-.05-.367-.154-.542-.018-.03-.038-.059-.06-.086l-4.058-5.064c-.4-.396-.998-.46-1.514.064l-4 5c-.022.027-.042.057-.06.086-.104.175-.154.353-.154.542 0 .551.449 1 1 1z" fill="#d6d8e1" data-original="#000000" style="" class=""/></g></svg>
